<?xml version="1.0" encoding="UTF-8" standalone="no"?>
<!-- Created with Inkscape (http://www.inkscape.org/) -->

<svg
   xmlns:dc="http://purl.org/dc/elements/1.1/"
   xmlns:cc="http://creativecommons.org/ns#"
   xmlns:rdf="http://www.w3.org/1999/02/22-rdf-syntax-ns#"
   xmlns:svg="http://www.w3.org/2000/svg"
   xmlns="http://www.w3.org/2000/svg"
   xmlns:xlink="http://www.w3.org/1999/xlink"
   xmlns:sodipodi="http://sodipodi.sourceforge.net/DTD/sodipodi-0.dtd"
   xmlns:inkscape="http://www.inkscape.org/namespaces/inkscape"
   width="512"
   height="185.46982"
   viewBox="0 0 135.46666 49.072224"
   version="1.1"
   id="svg888"
   inkscape:version="0.92.2 5c3e80d, 2017-08-06"
   sodipodi:docname="logo.svg"
   inkscape:export-filename="/Users/josiah/Design/Sites/Ascend Performance/logo.png"
   inkscape:export-xdpi="192.03125"
   inkscape:export-ydpi="192.03125">
  <defs
     id="defs882">
    <linearGradient
       inkscape:collect="always"
       xlink:href="#linearGradient7705"
       id="linearGradient861"
       gradientUnits="userSpaceOnUse"
       gradientTransform="translate(-9070.6885,362.8371)"
       x1="-8104"
       y1="786.44342"
       x2="-8104"
       y2="-178.8633" />
    <linearGradient
       id="linearGradient7705"
       inkscape:collect="always">
      <stop
         id="stop7707"
         offset="0"
         style="stop-color:#808080;stop-opacity:1" />
      <stop
         style="stop-color:#808080;stop-opacity:1"
         offset="0.43095049"
         id="stop7709" />
      <stop
         id="stop7713"
         offset="1"
         style="stop-color:#77ee77;stop-opacity:1" />
    </linearGradient>
  </defs>
  <sodipodi:namedview
     id="base"
     pagecolor="#ffffff"
     bordercolor="#666666"
     borderopacity="1.0"
     inkscape:pageopacity="0.0"
     inkscape:pageshadow="2"
     inkscape:zoom="1.4"
     inkscape:cx="266.96011"
     inkscape:cy="-2.4682615"
     inkscape:document-units="px"
     inkscape:current-layer="g1469"
     showgrid="true"
     units="px"
     fit-margin-top="0"
     fit-margin-left="0"
     fit-margin-right="0"
     fit-margin-bottom="0"
     inkscape:snap-bbox="true"
     inkscape:bbox-paths="true"
     inkscape:snap-bbox-edge-midpoints="true"
     inkscape:snap-grids="true"
     inkscape:window-width="1440"
     inkscape:window-height="855"
     inkscape:window-x="0"
     inkscape:window-y="1"
     inkscape:window-maximized="1">
    <inkscape:grid
       type="xygrid"
       id="grid1462"
       originx="-1.620343e-05"
       originy="-4.0222089e-07" />
  </sodipodi:namedview>
  <metadata
     id="metadata885">
    <rdf:RDF>
      <cc:Work
         rdf:about="">
        <dc:format>image/svg+xml</dc:format>
        <dc:type
           rdf:resource="http://purl.org/dc/dcmitype/StillImage" />
        <dc:title />
      </cc:Work>
    </rdf:RDF>
  </metadata>
  <g
     inkscape:label="Layer 1"
     inkscape:groupmode="layer"
     id="layer1"
     transform="translate(342.78655,-362.759)">
    <g
       transform="matrix(0.03796407,0,0,0.03796407,-16.791869,359.46783)"
       id="g859">
      <g
         id="g1469"
         transform="matrix(1.0239999,0,0,1.0239999,206.08571,-33.102832)">
        <path
           inkscape:connector-curvature="0"
           id="path8173"
           d="M -8328.9883,116.9869 -8384,322.2936 l 106.5762,-61.5313 93.0097,204.6211 69.8965,-102.5156 -95.9687,-140.752 86.8047,-50.1172 z m 449.9766,0 -205.3067,55.0117 86.8047,50.1172 L -8584,1082.2936 h 280 L -7930.5762,260.7623 -7824,322.2936 Z m -141.5332,383.7071 -73.9102,162.5996 190.4551,419 h 280 z"
           style="fill:url(#linearGradient861);fill-opacity:1;fill-rule:evenodd;stroke:none;stroke-width:1px;stroke-linecap:butt;stroke-linejoin:miter;stroke-opacity:1" />
        <g
           aria-label="SCEND"
           transform="scale(0.9971353,1.0028729)"
           style="font-style:normal;font-variant:normal;font-weight:normal;font-stretch:normal;font-size:11.96562386px;line-height:0%;font-family:sans-serif;-inkscape-font-specification:'sans-serif, Normal';text-align:start;letter-spacing:0px;word-spacing:0px;writing-mode:lr-tb;text-anchor:start;fill:#808080;fill-opacity:1;stroke:none;stroke-width:0.99713528px;stroke-linecap:butt;stroke-linejoin:miter;stroke-opacity:1"
           id="text8177">
          <path
             d="m -7264.2245,535.44219 -75.9339,44.99791 q -21.2937,-36.96257 -40.5785,-48.21204 -20.0883,-12.85654 -51.8279,-12.85654 -38.9714,0 -64.6845,22.09718 -25.7131,21.69542 -25.7131,54.64031 0,45.39967 67.4968,73.12159 l 61.8722,25.31132 q 75.5321,30.53429 110.4859,74.72866 34.9537,43.7926 34.9537,107.67355 0,85.57637 -57.0509,141.42197 -57.4527,56.2474 -142.6273,56.2474 -80.7552,0 -133.3866,-47.8103 -51.828,-47.81025 -64.6845,-134.59192 l 94.817,-20.89189 q 6.4283,54.64031 22.4989,75.5322 28.9273,40.1767 84.3711,40.1767 43.7926,0 72.7198,-29.32899 28.9273,-29.32899 28.9273,-74.3269 0,-18.07951 -5.223,-32.94489 -4.8212,-15.26714 -15.6689,-27.72192 -10.446,-12.85654 -27.3202,-23.70425 -16.8742,-11.24948 -40.1767,-21.29365 l -59.8633,-24.90956 q -127.3601,-53.83677 -127.3601,-157.49265 0,-69.90746 53.435,-116.9142 53.435,-47.4085 132.9849,-47.4085 107.2718,0 167.5368,104.45941 z"
             style="font-style:normal;font-variant:normal;font-weight:normal;font-stretch:normal;font-size:822.81878662px;line-height:1;font-family:Futura;-inkscape-font-specification:Futura;letter-spacing:-49.85676575px;stroke-width:0.99713528px"
             id="path828" />
          <path
             d="m -6725.8944,476.38245 v 110.88769 q -81.1569,-67.89862 -167.9386,-67.89862 -95.6205,0 -161.1085,68.70215 -65.8898,68.30039 -65.8898,167.13507 0,97.62937 65.8898,164.72446 65.8898,67.09509 161.5103,67.09509 49.4173,0 83.9693,-16.07068 19.2848,-8.03534 39.7749,-21.69542 20.8919,-13.66008 43.7926,-32.94489 v 112.8965 q -80.3534,45.3997 -168.7421,45.3997 -132.9849,0 -226.9983,-92.80818 -93.6118,-93.61171 -93.6118,-225.79305 0,-118.52126 78.3446,-211.32943 96.4241,-113.70006 249.4973,-113.70006 83.5675,0 161.5103,45.39967 z"
             style="font-style:normal;font-variant:normal;font-weight:normal;font-stretch:normal;font-size:822.81878662px;line-height:1;font-family:Futura;-inkscape-font-specification:Futura;letter-spacing:-49.85676575px;stroke-width:0.99713528px"
             id="path830" />
          <path
             d="m -6314.9244,531.02276 h -248.6938 v 149.05555 h 241.462 v 87.98697 h -241.462 v 207.31176 h 248.6938 v 87.98696 h -342.3055 V 443.03579 h 342.3055 z"
             style="font-style:normal;font-variant:normal;font-weight:normal;font-stretch:normal;font-size:822.81878662px;line-height:1;font-family:Futura;-inkscape-font-specification:Futura;letter-spacing:-49.85676575px;stroke-width:0.99713528px"
             id="path832" />
          <path
             d="M -6241.037,1063.364 V 400.85025 l 452.3896,473.28151 V 443.03579 h 93.6117 v 658.09431 l -452.3896,-472.0762 v 434.3101 z"
             style="font-style:normal;font-variant:normal;font-weight:normal;font-stretch:normal;font-size:822.81878662px;line-height:1;font-family:Futura;-inkscape-font-specification:Futura;letter-spacing:-49.85676575px;stroke-width:0.99713528px"
             id="path834" />
          <path
             d="M -5596.6404,1063.364 V 443.03579 h 130.1725 q 93.6117,0 147.8503,18.48128 58.2562,18.07951 105.6647,61.47035 96.0223,87.5852 96.0223,230.21248 0,143.02905 -100.04,231.41778 -50.2209,44.19442 -105.2629,61.47032 -51.4262,17.276 -145.8415,17.276 z m 93.6117,-87.98696 h 42.1855 q 63.0775,0 104.8612,-13.25831 41.7838,-14.06184 75.5322,-44.59613 69.1039,-63.07742 69.1039,-164.3227 0,-102.04881 -68.3003,-165.528 -61.4704,-56.64914 -181.197,-56.64914 h -42.1855 z"
             style="font-style:normal;font-variant:normal;font-weight:normal;font-stretch:normal;font-size:822.81878662px;line-height:1;font-family:Futura;-inkscape-font-specification:Futura;letter-spacing:-49.85676575px;stroke-width:0.99713528px"
             id="path836" />
        </g>
        <g
           aria-label="Performance"
           transform="scale(1.132937,0.88266159)"
           style="font-style:normal;font-variant:normal;font-weight:normal;font-stretch:normal;font-size:12.55352783px;line-height:0%;font-family:sans-serif;-inkscape-font-specification:'sans-serif, Normal';text-align:start;letter-spacing:0px;word-spacing:0px;writing-mode:lr-tb;text-anchor:start;fill:#77ee77;fill-opacity:1;stroke:none;stroke-width:1.04612708px;stroke-linecap:butt;stroke-linejoin:miter;stroke-opacity:1"
           id="text8185">
          <path
             d="m -7538.1889,1446.9345 v 110.7657 h -41.1618 v -272.7626 h 46.6382 q 34.272,0 51.7613,4.7698 17.666,4.7698 31.0921,18.0193 23.4958,22.9657 23.4958,57.9444 0,37.4518 -25.0857,59.3576 -25.0857,21.9058 -67.6607,21.9058 z m 0,-38.1585 h 15.3694 q 56.7077,0 56.7077,-43.6349 0,-42.2217 -58.4743,-42.2217 h -13.6028 z"
             style="font-style:normal;font-variant:normal;font-weight:normal;font-stretch:normal;font-size:361.7991333px;line-height:1;font-family:Futura;-inkscape-font-specification:Futura;letter-spacing:104.6127243px;fill:#77ee77;fill-opacity:1;stroke:none;stroke-width:1.04612708px"
             id="path839" />
          <path
             d="m -7139.0844,1481.0299 h -123.3085 q 1.5899,21.1991 13.7794,33.742 12.1895,12.3662 31.2688,12.3662 14.8394,0 24.5557,-7.0664 9.5396,-7.0664 21.7291,-26.1457 l 33.5654,18.726 q -7.773,13.2494 -16.4294,22.7891 -8.6563,9.3629 -18.5492,15.546 -9.893,6.0065 -21.3759,8.833 -11.4828,2.8266 -24.909,2.8266 -38.5118,0 -61.8309,-24.7324 -23.3191,-24.909 -23.3191,-66.0707 0,-40.8084 22.6125,-66.0708 22.7891,-24.909 60.4176,-24.909 37.9818,0 60.0643,24.2024 21.9058,24.0257 21.9058,66.6007 z m -40.8084,-32.5054 q -8.3031,-31.7988 -40.1018,-31.7988 -7.2431,0 -13.6028,2.2966 -6.3598,2.1199 -11.6595,6.3598 -5.1232,4.0631 -8.833,9.8929 -3.7099,5.8298 -5.6531,13.2495 z"
             style="font-style:normal;font-variant:normal;font-weight:normal;font-stretch:normal;font-size:361.7991333px;line-height:1;font-family:Futura;-inkscape-font-specification:Futura;letter-spacing:104.6127243px;fill:#77ee77;fill-opacity:1;stroke:none;stroke-width:1.04612708px"
             id="path841" />
          <path
             d="m -6991.1901,1385.6336 h 39.7485 v 15.3694 q 10.9529,-11.4829 19.4325,-15.7227 8.6564,-4.4165 20.4926,-4.4165 15.7227,0 32.8587,10.2463 l -18.196,36.3919 q -11.3062,-8.1264 -22.0824,-8.1264 -32.5054,0 -32.5054,49.1114 v 89.2132 h -39.7485 z"
             style="font-style:normal;font-variant:normal;font-weight:normal;font-stretch:normal;font-size:361.7991333px;line-height:1;font-family:Futura;-inkscape-font-specification:Futura;letter-spacing:104.6127243px;fill:#77ee77;fill-opacity:1;stroke:none;stroke-width:1.04612708px"
             id="path843" />
          <path
             d="m -6697.7281,1422.7322 v 134.968 h -39.9251 v -134.968 h -14.1328 v -37.0986 h 14.1328 v -66.424 q 0,-32.5054 11.3062,-45.9316 15.5461,-18.7259 45.2249,-18.7259 10.5996,0 26.6756,6.1831 v 40.6317 l -4.0632,-2.1199 q -12.8961,-6.5364 -21.1991,-6.5364 -10.5996,0 -14.3095,7.5964 -3.7098,7.4197 -3.7098,28.6188 v 56.7078 h 43.2816 v 37.0986 z"
             style="font-style:normal;font-variant:normal;font-weight:normal;font-stretch:normal;font-size:361.7991333px;line-height:1;font-family:Futura;-inkscape-font-specification:Futura;letter-spacing:104.6127243px;fill:#77ee77;fill-opacity:1;stroke:none;stroke-width:1.04612708px"
             id="path845" />
          <path
             d="m -6530.7545,1470.4303 q 0,-37.2752 26.6756,-63.4209 26.6756,-26.1456 65.0108,-26.1456 38.5118,0 65.3641,26.3223 26.4989,26.3223 26.4989,64.6575 0,38.6884 -26.6756,64.8341 -26.8523,25.969 -65.8941,25.969 -38.6885,0 -64.8341,-26.499 -26.1456,-26.1456 -26.1456,-65.7174 z m 40.6317,0.7066 q 0,25.7923 13.7795,40.8084 14.1327,15.1928 37.2752,15.1928 23.3191,0 37.2752,-15.0161 13.9561,-15.0161 13.9561,-40.1018 0,-25.0857 -13.9561,-40.1017 -14.1328,-15.1928 -37.2752,-15.1928 -22.7891,0 -36.9219,15.1928 -14.1328,15.1927 -14.1328,39.2184 z"
             style="font-style:normal;font-variant:normal;font-weight:normal;font-stretch:normal;font-size:361.7991333px;line-height:1;font-family:Futura;-inkscape-font-specification:Futura;letter-spacing:104.6127243px;fill:#77ee77;fill-opacity:1;stroke:none;stroke-width:1.04612708px"
             id="path847" />
          <path
             d="m -6200.3706,1385.6336 h 39.7484 v 15.3694 q 10.9529,-11.4829 19.4326,-15.7227 8.6563,-4.4165 20.4925,-4.4165 15.7227,0 32.8587,10.2463 l -18.1959,36.3919 q -11.3062,-8.1264 -22.0825,-8.1264 -32.5054,0 -32.5054,49.1114 v 89.2132 h -39.7484 z"
             style="font-style:normal;font-variant:normal;font-weight:normal;font-stretch:normal;font-size:361.7991333px;line-height:1;font-family:Futura;-inkscape-font-specification:Futura;letter-spacing:104.6127243px;fill:#77ee77;fill-opacity:1;stroke:none;stroke-width:1.04612708px"
             id="path849" />
          <path
             d="m -5954.4302,1385.6336 h 39.7485 v 15.8994 q 11.4828,-12.0129 19.6092,-16.2527 8.6563,-4.4165 21.7291,-4.4165 29.1489,0 46.1082,25.439 18.726,-25.439 50.7014,-25.439 58.121,0 58.121,70.4872 v 106.3492 h -39.9251 v -95.5729 q 0,-24.7324 -6.0064,-34.9786 -6.1831,-10.423 -20.3159,-10.423 -16.4293,0 -24.0257,12.3662 -7.4197,12.3662 -7.4197,39.7484 v 88.8599 h -39.9251 v -95.0429 q 0,-45.9316 -26.499,-45.9316 -16.7827,0 -24.5557,12.5429 -7.5963,12.5428 -7.5963,39.5717 v 88.8599 h -39.7485 z"
             style="font-style:normal;font-variant:normal;font-weight:normal;font-stretch:normal;font-size:361.7991333px;line-height:1;font-family:Futura;-inkscape-font-specification:Futura;letter-spacing:104.6127243px;fill:#77ee77;fill-opacity:1;stroke:none;stroke-width:1.04612708px"
             id="path851" />
          <path
             d="m -5436.787,1385.6336 h 39.9251 v 172.0666 h -39.9251 v -18.0193 q -24.5557,22.9658 -52.8212,22.9658 -35.6853,0 -59.0044,-25.7924 -23.1424,-26.3223 -23.1424,-65.7174 0,-38.6885 23.1424,-64.4808 23.1424,-25.7923 57.9444,-25.7923 30.0322,0 53.8812,24.7324 z m -94.3363,85.5033 q 0,24.7324 13.2495,40.2784 13.6028,15.7228 34.272,15.7228 22.0825,0 35.6853,-15.1928 13.6028,-15.7227 13.6028,-39.9251 0,-24.2024 -13.6028,-39.9251 -13.6028,-15.3694 -35.332,-15.3694 -20.4925,0 -34.272,15.5461 -13.6028,15.7227 -13.6028,38.8651 z"
             style="font-style:normal;font-variant:normal;font-weight:normal;font-stretch:normal;font-size:361.7991333px;line-height:1;font-family:Futura;-inkscape-font-specification:Futura;letter-spacing:104.6127243px;fill:#77ee77;fill-opacity:1;stroke:none;stroke-width:1.04612708px"
             id="path853" />
          <path
             d="m -5242.0776,1385.6336 h 39.9251 v 15.8994 q 20.8458,-20.6692 46.9914,-20.6692 30.0322,0 46.8149,18.9026 14.4861,16.076 14.4861,52.4679 v 105.4659 h -39.9251 v -96.1029 q 0,-25.439 -7.0664,-35.1553 -6.8898,-9.8929 -25.0857,-9.8929 -19.7859,0 -28.0889,13.0728 -8.1263,12.8961 -8.1263,45.0482 v 83.0301 h -39.9251 z"
             style="font-style:normal;font-variant:normal;font-weight:normal;font-stretch:normal;font-size:361.7991333px;line-height:1;font-family:Futura;-inkscape-font-specification:Futura;letter-spacing:104.6127243px;fill:#77ee77;fill-opacity:1;stroke:none;stroke-width:1.04612708px"
             id="path855" />
          <path
             d="m -4804.9913,1393.0533 v 52.8213 q -13.6028,-16.606 -24.3791,-22.7891 -10.5996,-6.3598 -24.909,-6.3598 -22.4358,0 -37.2752,15.7227 -14.8394,15.7228 -14.8394,39.3952 0,24.2023 14.3094,39.7484 14.4861,15.5461 36.9219,15.5461 14.3094,0 25.2623,-6.1831 10.5996,-6.0065 24.9091,-23.3191 v 52.4679 q -24.2024,12.5429 -48.4048,12.5429 -39.9251,0 -66.7774,-25.7924 -26.8523,-25.9689 -26.8523,-64.4808 0,-38.5118 27.2056,-65.0107 27.2056,-26.499 66.7774,-26.499 25.439,0 48.0515,12.1895 z"
             style="font-style:normal;font-variant:normal;font-weight:normal;font-stretch:normal;font-size:361.7991333px;line-height:1;font-family:Futura;-inkscape-font-specification:Futura;letter-spacing:104.6127243px;fill:#77ee77;fill-opacity:1;stroke:none;stroke-width:1.04612708px"
             id="path857" />
          <path
             d="m -4505.1698,1481.0299 h -123.3085 q 1.59,21.1991 13.7795,33.742 12.1895,12.3662 31.2688,12.3662 14.8394,0 24.5557,-7.0664 9.5396,-7.0664 21.7291,-26.1457 l 33.5654,18.726 q -7.7731,13.2494 -16.4294,22.7891 -8.6563,9.3629 -18.5493,15.546 -9.8929,6.0065 -21.3758,8.833 -11.4829,2.8266 -24.909,2.8266 -38.5118,0 -61.8309,-24.7324 -23.3191,-24.909 -23.3191,-66.0707 0,-40.8084 22.6124,-66.0708 22.7891,-24.909 60.4177,-24.909 37.9818,0 60.0643,24.2024 21.9058,24.0257 21.9058,66.6007 z m -40.8084,-32.5054 q -8.303,-31.7988 -40.1017,-31.7988 -7.2431,0 -13.6028,2.2966 -6.3598,2.1199 -11.6596,6.3598 -5.1231,4.0631 -8.833,9.8929 -3.7098,5.8298 -5.6531,13.2495 z"
             style="font-style:normal;font-variant:normal;font-weight:normal;font-stretch:normal;font-size:361.7991333px;line-height:1;font-family:Futura;-inkscape-font-specification:Futura;letter-spacing:104.6127243px;fill:#77ee77;fill-opacity:1;stroke:none;stroke-width:1.04612708px"
             id="path859" />
        </g>
      </g>
    </g>
  </g>
</svg>
